:SAMPLES-PER-SECOND 30
:FULLY-SPECIFIED
:DEGREES
982
root  10.1502 37.8107 -26.1602 -164.661 -82.831 160.704
RightUpLeg  -23.694 3.54239 -8.13297
RightLeg  22.3149 7.46307 3.12481
RightFoot  2.15519 -1.05473 9.07811
RightToes  -8.3237e-009 0 -3.6325e-017
Spine  13.0149 -2.45824 2.65053
Spine1  6.44493 -4.09575 6.99202
HEad  -26.1357 20.8342 -9.37921
LeftShoulder1  0.082415 3.27744 -30.2611
LeftArm  19.9187 -13.6063 -58.4479
LeftForeArm  34.7615 -51.681 -11.4453
LeftHand  -0.0348956 3.42471 0.994498
RightShoulder  -0.230899 -4.24237 23.8927
RightArm  15.3988 -13.8642 15.7994
RightForeArm  13.6638 37.9387 7.89861
RightHand  -0.144968 7.00072 -1.72099
LeftUpLeg  4.67996 11.0667 -11.1965
LeftLeg  25.5807 10.729 5.89595
LeftFoot  -19.2367 0.544973 6.21173
LeftToes  -1.18267e-011 3.61711e-011 9.57411e-011
983
root  9.27497 37.7167 -26.2972 -163.914 -83.7722 160.468
RightUpLeg  -24.4441 0.126244 -6.80492
RightLeg  24.5458 6.40242 2.97609
RightFoot  3.62304 -0.542375 4.32795
RightToes  -8.3237e-009 0 -3.6325e-017
Spine  14.4381 -3.20206 4.17881
Spine1  7.19654 -4.45683 5.83973
HEad  -27.079 20.53 -10.0083
LeftShoulder1  0.0381696 3.39895 -30.4487
LeftArm  17.6725 -12.0672 -57.9593
LeftForeArm  34.3393 -51.0325 -11.1848
LeftHand  -0.0272446 3.4952 0.534723
RightShoulder  -0.237249 -4.2766 23.3257
RightArm  14.5877 -19.6328 12.9054
RightForeArm  13.8063 40.1474 8.56973
RightHand  -0.196833 6.11995 -2.31939
LeftUpLeg  4.4282 12.1747 -9.98447
LeftLeg  28.2307 8.66721 5.34234
LeftFoot  -19.4151 0.421877 4.38885
LeftToes  -1.18267e-011 3.61711e-011 9.57411e-011
984
root  8.49261 37.3534 -26.4229 -164.181 -84.5463 161.008
RightUpLeg  -25.6848 0.687056 -7.1549
RightLeg  29.5461 6.23381 3.57519
RightFoot  -0.807483 -0.578691 6.12841
RightToes  -8.3237e-009 0 -3.6325e-017
Spine  16.4357 -3.71575 5.45726
Spine1  7.55133 -4.43507 4.58444
HEad  -28.0366 18.3939 -11.2704
LeftShoulder1  0.0369503 3.40386 -31.1592
LeftArm  15.3883 -11.1871 -57.406
LeftForeArm  34.0089 -48.6965 -10.2184
LeftHand  -0.0381023 3.55877 1.23838
RightShoulder  -0.233676 -4.27695 22.7957
RightArm  12.3506 -24.6157 11.5377
RightForeArm  14.6328 41.7699 9.04177
RightHand  -0.181822 7.18855 -2.0328
LeftUpLeg  1.41874 13.5505 -8.67346
LeftLeg  36.448 6.1077 5.16201
LeftFoot  -18.9828 0.17797 0.77893
LeftToes  -1.18267e-011 3.61711e-011 9.57411e-011
985
root  7.79454 37.0729 -26.517 -171.958 -85.7583 169.609
RightUpLeg  -27.0363 -0.350774 -6.08378
RightLeg  33.1845 5.88833 3.89588
RightFoot  -3.16112 -0.38031 5.01675
RightToes  -8.3237e-009 0 -3.6325e-017
Spine  17.6894 -4.47159 7.837
Spine1  8.60524 -4.41743 2.91349
HEad  -30.6453 19.2313 -11.3701
LeftShoulder1  0.181494 3.00811 -30.4789
LeftArm  13.0793 -10.5888 -57.4103
LeftForeArm  32.8901 -44.4068 -8.7128
LeftHand  -0.047212 3.65449 1.96361
RightShoulder  -0.319949 -4.54333 23.7032
RightArm  9.48226 -26.6686 11.5067
RightForeArm  14.4268 41.8325 9.07943
RightHand  -0.229242 7.49531 -2.41514
LeftUpLeg  -3.93981 15.3404 -6.5858
LeftLeg  46.6122 3.8773 4.84335
LeftFoot  -14.1666 0.024034 -1.82777
LeftToes  -1.18267e-011 3.61711e-011 9.57411e-011
986
root  7.23142 36.955 -26.6409 -178.194 -86.9002 176.625
RightUpLeg  -27.6503 -2.33464 -5.28476
RightLeg  35.2043 6.26788 4.47763
RightFoot  -4.87029 -0.280279 4.38949
RightToes  -8.3237e-009 0 -3.6325e-017
Spine  18.8402 -4.50162 7.85759
Spine1  9.71469 -4.65456 4.04408
HEad  -31.9188 18.2075 -12.4526
LeftShoulder1  0.241642 2.84172 -30.3779
LeftArm  12.3219 -10.8226 -57.0657
LeftForeArm  30.157 -38.264 -6.96723
LeftHand  -0.0414087 4.59848 2.72566
RightShoulder  -0.304325 -4.49008 23.7052
RightArm  5.82588 -27.0676 13.9695
RightForeArm  14.7291 40.8451 8.73264
RightHand  -0.291973 7.87879 -2.88649
LeftUpLeg  -9.99322 17.4194 -5.06373
LeftLeg  55.783 3.2432 5.69037
LeftFoot  -4.95429 0.0902223 -1.066
LeftToes  -1.18267e-011 3.61711e-011 9.57411e-011
987
root  6.68958 36.841 -26.6989 171.849 -86.9564 -172.608
RightUpLeg  -28.3547 -2.38541 -4.70865
RightLeg  36.8143 6.23661 4.72642
RightFoot  -6.3875 -0.231179 4.32364
RightToes  -8.3237e-009 0 -3.6325e-017
Spine  20.3007 -4.37882 8.19584
Spine1  9.82959 -4.3724 4.09842
HEad  -32.3557 18.1324 -12.6529
LeftShoulder1  0.249419 2.82779 -30.7892
LeftArm  11.7393 -10.4418 -55.5977
LeftForeArm  27.8583 -32.2372 -5.50365
LeftHand  -0.0200317 5.80359 2.56471
RightShoulder  -0.377355 -4.70395 24.4536
RightArm  2.34202 -24.659 17.3907
RightForeArm  16.1461 39.4352 8.19878
RightHand  -0.123808 6.15978 -1.59022
LeftUpLeg  -15.8078 19.843 -3.88922
LeftLeg  62.9948 2.92906 6.81841
LeftFoot  0.343686 0.0525591 -0.488106
LeftToes  -1.18267e-011 3.61711e-011 9.57411e-011
988
root  6.10188 36.9143 -26.6828 166.246 -87.1544 -166.007
RightUpLeg  -28.3358 -2.67771 -4.48299
RightLeg  36.8513 6.31206 4.79288
RightFoot  -7.42353 -0.191353 4.12975
RightToes  -8.3237e-009 0 -3.6325e-017
Spine  21.036 -4.63018 8.53705
Spine1  10.0622 -4.30882 3.12335
HEad  -32.8443 17.7668 -12.7602
LeftShoulder1  0.260508 2.79844 -30.8196
LeftArm  10.4507 -9.01952 -53.1946
LeftForeArm  25.8451 -27.3213 -4.43955
LeftHand  -0.0344211 4.96687 2.90991
RightShoulder  -0.404568 -4.75824 25.3106
RightArm  -0.303846 -20.2647 22.1348
RightForeArm  16.3217 37.4412 7.58556
RightHand  -0.195821 7.29328 -2.1566
LeftUpLeg  -21.0898 21.1837 -3.16098
LeftLeg  67.4207 1.82307 5.59898
LeftFoot  -1.16609 -0.0290161 0.394735
LeftToes  -1.18267e-011 3.61711e-011 9.57411e-011
989
root  5.52504 37.134 -26.6001 169.207 -87.3642 -168.277
RightUpLeg  -27.4741 -2.7287 -4.87102
RightLeg  35.8396 6.23633 4.55732
RightFoot  -7.87594 -0.193545 4.62372
RightToes  -8.3237e-009 0 -3.6325e-017
Spine  21.4836 -4.40149 8.24986
Spine1  10.8706 -4.05986 2.8015
HEad  -32.9801 17.5681 -13.2707
LeftShoulder1  0.293271 2.70795 -30.7789
LeftArm  8.95225 -8.26162 -51.2936
LeftForeArm  23.8815 -21.4786 -4.15808
LeftHand  -0.0284861 5.33497 2.62214
RightShoulder  -0.410126 -4.77171 25.3929
RightArm  -3.03948 -15.8239 27.9577
RightForeArm  17.3557 36.8103 7.34198
RightHand  -0.213556 6.60193 -2.40854
LeftUpLeg  -25.1885 21.9463 -2.71116
LeftLeg  68.1982 0.982843 3.5306
LeftFoot  -1.54207 0.0269437 -0.20802
LeftToes  -1.18267e-011 3.61711e-011 9.57411e-011
990
root  4.94004 37.3685 -26.4478 172.994 -88.0574 -171.502
RightUpLeg  -26.2753 -3.12875 -5.53384
RightLeg  34.61 6.25724 4.36842
RightFoot  -8.32806 -0.18825 4.99619
RightToes  -8.3237e-009 0 -3.6325e-017
Spine  21.9893 -4.20844 8.53609
Spine1  10.815 -3.52144 1.7922
HEad  -32.7855 15.8958 -13.0117
LeftShoulder1  0.373109 2.48137 -30.3819
LeftArm  2.14726 -7.04772 -49.3774
LeftForeArm  28.716 -15.9036 -6.24847
LeftHand  -0.0126374 6.55238 1.98728
RightShoulder  -0.44402 -4.85043 26.0797
RightArm  -3.73016 -11.7359 32.7422
RightForeArm  17.5078 37.0728 7.40822
RightHand  -0.235129 6.80806 -2.58208
LeftUpLeg  -28.401 21.4254 -2.09619
LeftLeg  66.3285 0.24065 1.35045
LeftFoot  -2.20687 0.0675968 -0.677491
LeftToes  -1.18267e-011 3.61711e-011 9.57411e-011
991
root  4.31479 37.6533 -26.2466 176.37 -88.6262 -174.244
RightUpLeg  -24.7856 -3.45057 -6.15659
RightLeg  32.752 6.26635 4.07721
RightFoot  -8.50339 -0.197651 5.64715
RightToes  -8.3237e-009 0 -3.6325e-017
Spine  21.7807 -3.64659 8.71089
Spine1  10.919 -2.76035 1.1269
HEad  -31.7165 14.044 -12.9009
LeftShoulder1  0.357688 2.53288 -30.7362
LeftArm  -3.29391 -5.4713 -47.1777
LeftForeArm  33.0302 -12.2028 -7.19701
LeftHand  -0.0138039 6.91413 1.73398
RightShoulder  -0.402972 -4.73275 25.8347
RightArm  -3.04294 -8.11466 37.6611
RightForeArm  16.9836 38.1969 7.76775
RightHand  -0.340819 6.55051 -3.65544
LeftUpLeg  -30.7234 20.409 -0.918444
LeftLeg  62.063 -0.245684 0.0889007
LeftFoot  -3.05011 0.0741256 -0.768067
LeftToes  -1.18267e-011 3.61711e-011 9.57411e-011
992
root  3.66577 37.9023 -25.987 176.166 -89.691 -173.579
RightUpLeg  -22.9181 -4.33466 -6.76809
RightLeg  30.8445 6.36108 3.84079
RightFoot  -8.85213 -0.195771 6.22529
RightToes  -8.3237e-009 0 -3.6325e-017
Spine  21.5393 -3.1498 9.02665
Spine1  10.4267 -2.04417 0.500567
HEad  -30.1832 12.3995 -12.525
LeftShoulder1  0.394406 2.42557 -30.4811
LeftArm  -5.74983 -2.98794 -45.662
LeftForeArm  35.1556 -10.4282 -7.23604
LeftHand  -0.0256396 7.7155 0.734428
RightShoulder  -0.402826 -4.73204 25.8374
RightArm  -0.48285 -4.61593 41.6106
RightForeArm  17.1717 39.9732 8.29761
RightHand  -0.351603 6.10917 -3.87619
LeftUpLeg  -31.9618 18.7127 0.778141
LeftLeg  55.8991 -0.296825 0.0313879
LeftFoot  -3.59868 0.0757218 -0.753164
LeftToes  -1.18267e-011 3.61711e-011 9.57411e-011
993
root  2.99843 38.1701 -25.685 3.8548 -88.96 -1.24925
RightUpLeg  -20.2329 -5.54427 -7.45757
RightLeg  28.4876 6.5378 3.60217
RightFoot  -9.03478 -0.195908 6.67394
RightToes  -8.3237e-009 0 -3.6325e-017
Spine  20.9201 -2.69432 9.13039
Spine1  10.8277 -1.39866 -0.199513
HEad  -29.3902 10.3289 -11.6682
LeftShoulder1  0.408835 2.38011 -30.2926
LeftArm  -5.85795 -0.511751 -44.0714
LeftForeArm  35.0726 -10.3795 -7.21934
LeftHand  -0.0413243 7.62359 -0.0231736
RightShoulder  -0.429446 -4.81388 25.8579
RightArm  2.68977 -1.01242 44.8379
RightForeArm  17.2948 42.3628 9.06524
RightHand  -0.31648 6.4799 -3.43002
LeftUpLeg  -31.6196 17.0627 2.77175
LeftLeg  47.5837 -0.495838 -0.137523
LeftFoot  -3.43836 0.0565044 -0.413914
LeftToes  -1.18267e-011 3.61711e-011 9.57411e-011
994
root  2.29907 38.4059 -25.3189 7.29126 -87.8038 -4.82564
RightUpLeg  -17.24 -5.67684 -8.0203
RightLeg  25.8271 6.0039 2.92884
RightFoot  -9.24504 -0.20481 7.74572
RightToes  -8.3237e-009 0 -3.6325e-017
Spine  20.3643 -2.17494 9.18482
Spine1  10.8516 -0.746547 -0.658108
HEad  -28.9628 8.81316 -11.0844
LeftShoulder1  0.372254 2.48787 -30.5736
LeftArm  -5.2925 2.11862 -42.2121
LeftForeArm  34.6438 -10.972 -7.16659
LeftHand  -0.089673 7.8604 -1.87459
RightShoulder  -0.402756 -4.74508 25.4903
RightArm  6.09429 2.04345 47.5828
RightForeArm  17.382 44.8365 9.93626
RightHand  -0.355258 6.80488 -3.72874
LeftUpLeg  -30.2671 15.5109 5.09621
LeftLeg  37.9976 -0.942456 -0.422353
LeftFoot  -2.44726 0.0853563 -0.852438
LeftToes  -1.18267e-011 3.61711e-011 9.57411e-011
